<?xml version="1.0" encoding="UTF-8"?>
<!DOCTYPE svg PUBLIC "-//W3C//DTD SVG 1.1//EN" "http://www.w3.org/Graphics/SVG/1.1/DTD/svg11.dtd">
<svg xmlns="http://www.w3.org/2000/svg" version="1.1" width="800px" height="800px" style="shape-rendering:geometricPrecision; text-rendering:geometricPrecision; image-rendering:optimizeQuality; fill-rule:evenodd; clip-rule:evenodd" xmlns:xlink="http://www.w3.org/1999/xlink">
<g><path style="opacity:0.999" fill="#fefefe" d="M 682.5,68.5 C 683.289,68.7828 683.956,69.2828 684.5,70C 593.732,146.446 498.732,217.113 399.5,282C 364.454,305.199 327.787,325.866 289.5,344C 267.262,353.452 245.262,363.452 223.5,374C 185.581,393.196 154.748,420.363 131,455.5C 120.373,471.701 114.873,489.368 114.5,508.5C 136.817,465.015 169.484,431.515 212.5,408C 233.324,396.06 255.49,387.894 279,383.5C 279.5,384 280,384.5 280.5,385C 261.295,399.872 244.461,417.038 230,436.5C 228.312,439.525 226.979,442.525 226,445.5C 302.065,394.214 378.898,344.047 456.5,295C 530.18,245.495 603.513,195.495 676.5,145C 711.73,121.44 747.23,98.2732 783,75.5C 783.667,76.1667 783.667,76.8333 783,77.5C 724.342,130.395 664.842,182.228 604.5,233C 565.743,265.094 526.41,296.427 486.5,327C 427.78,370.054 368.78,412.721 309.5,455C 292.293,467.873 277.46,483.04 265,500.5C 259.124,510.759 256.791,521.759 258,533.5C 258.202,535.256 258.702,536.922 259.5,538.5C 276.5,525 293.5,511.5 310.5,498C 453.771,390.73 599.271,286.564 747,185.5C 747.667,186.167 747.667,186.833 747,187.5C 651.02,282.858 551.686,373.525 449,459.5C 446.203,463.299 443.036,466.799 439.5,470C 405.5,500 371.5,530 337.5,560C 328.803,568.363 320.469,577.03 312.5,586C 322.175,581.665 331.842,576.998 341.5,572C 345.76,570.692 349.926,569.192 354,567.5C 354.259,572.071 353.259,576.404 351,580.5C 344.508,592.653 336.841,603.987 328,614.5C 308.798,634.88 287.965,653.214 265.5,669.5C 280.472,669.495 294.139,664.995 306.5,656C 325.536,640.971 343.369,624.471 360,606.5C 386.691,574.468 414.858,543.635 444.5,514C 539.973,428.376 641.473,350.876 749,281.5C 749.5,282 750,282.5 750.5,283C 696.312,333.189 643.812,385.022 593,438.5C 569.222,466.716 546.889,496.05 526,526.5C 503.333,565.833 480.667,605.167 458,644.5C 429.402,688.103 392.235,722.269 346.5,747C 274.51,782.236 203.176,780.903 132.5,743C 70.2577,704.023 34.7577,647.857 26,574.5C 22.1168,518.169 36.1168,466.835 68,420.5C 105.397,370.45 153.23,333.95 211.5,311C 272.7,289.232 332.366,263.899 390.5,235C 490.304,183.281 587.638,127.781 682.5,68.5 Z M 75.5,492.5 C 67.4645,521.683 65.2978,551.35 69,581.5C 75.2886,618.099 94.4553,645.599 126.5,664C 159.325,681.289 194.325,689.289 231.5,688C 198.619,701.546 165.285,702.879 131.5,692C 87.3337,670.892 61.167,636.058 53,587.5C 48.8832,552.884 56.3832,521.218 75.5,492.5 Z M 415.5,630.5 C 416.525,630.897 416.692,631.563 416,632.5C 391.264,667.913 359.764,695.413 321.5,715C 278.375,732.913 234.375,735.247 189.5,722C 262.954,717.742 329.287,694.075 388.5,651C 397.928,644.632 406.928,637.798 415.5,630.5 Z"/></g>
</svg>
